<svg width="1024" height="559" viewBox="0 0 1024 559" fill="none" xmlns="http://www.w3.org/2000/svg">
<g clip-path="url(#clip0_4_2)">
<path d="M0 19.7091L151.549 19.7297C176.921 19.7317 205.488 19.0758 230.652 19.8511C238.9 45.7049 248.707 71.0349 260.02 95.7018C263.985 104.505 268.548 113.205 272.732 121.808C274.692 125.837 281.891 138.018 282.234 141.152C282.99 148.041 282.67 158.78 282.657 166.059L282.591 217.856C293.311 217.725 304.033 217.734 314.753 217.884C317.994 197.727 322.566 179.552 341.51 168.533L341.531 380.924L341.518 439.8C341.494 468.073 339.497 501.284 361.473 523.23C374.644 536.383 392.31 540.851 410.459 541.836L410.494 559H161.705L161.74 541.961C179.675 540.717 197.341 536.504 210.379 523.401C234.527 499.131 230.541 460.391 230.515 429.025L230.507 344.118L230.518 44.3352C213.684 44.4753 196.613 44.2289 179.78 44.3657C99.0017 45.0221 35.9792 80.8814 23.2644 165.514C15.7583 165.743 7.56023 165.619 0 165.654V19.7091Z" fill="#EAEBE8"/>
<path d="M947.714 0H974.471H1024V7.99695V18.3992C923.316 20.0943 866.826 95.8027 828.722 179.357C819.544 199.482 812.717 220.654 805.562 241.55L775.782 328.455L722.338 482.365C713.61 507.461 703.867 533.907 695.731 559H605.377C591.019 520.778 578.772 481.542 564.289 443.342C563.274 440.663 562.214 437.993 561.134 435.339C581.7 460.259 625.086 493.678 659.39 483.052C688.395 474.068 697.662 443.334 706.619 417.863L721.03 376.521L772.835 225.776L794.699 160.764C807.057 123.691 817.579 89.1394 840.629 56.8077C861.802 27.1081 889.977 10.0314 925.572 3.10772C932.836 1.69492 940.32 1.24872 947.714 0Z" fill="#EAEBE8"/>
<path d="M294.135 137.061L548.648 137.065L548.505 206.482L537.415 206.464C529.551 166.32 504.263 149.567 464.13 149.471C459.289 149.46 454.359 149.469 449.508 149.494L449.558 304.391L449.533 346.921C449.527 358.539 448.941 370.311 451.026 381.699C455.322 398.579 466.493 404.458 482.669 405.853L482.776 414.668L359.957 414.622L359.975 405.994C396.449 401.933 393.501 376.253 393.469 347.641L393.458 304.407L393.468 149.494C371.754 149.387 352.033 148.728 332.746 160.964C315.726 171.762 309.295 187.565 305.165 206.463L294.245 206.454C294.074 183.324 294.037 160.192 294.135 137.061Z" fill="#EAEBE8"/>
<path d="M718.826 184.187C730.065 182.599 747.409 184.604 753.193 195.825C755.29 199.894 755.648 204.639 754.183 208.975C749.356 223.667 737.438 219.844 726.391 215.426C714.765 210.777 701.038 212.339 690.031 218.189C656.377 236.076 641.363 272.949 628.461 306.488L613.073 346.569L597.031 388.223C593.758 396.685 589.896 406.098 587.088 414.612C577.261 415.077 563.486 414.716 553.497 414.605L496.013 268.339C488.72 249.458 482.536 238.282 461.177 234.244L461.181 226.249L571.165 226.223L571.042 234.303C563.783 235.639 555.62 237.137 552.626 244.845C549.305 253.515 552.389 263.293 555.722 271.541C567.842 301.532 578.276 332.627 590.629 362.48C600.675 336.957 610.328 311.145 620.022 285.471C636.16 242.73 669.407 190.04 718.826 184.187Z" fill="#EAEBE8"/>
<path d="M687.085 115.303C694.383 124.79 703.057 138.617 711.707 146.486C712.578 147.278 716.382 148.122 717.732 148.437C719.868 150.652 724.219 156.445 726.242 159.018C731.616 165.798 736.876 172.668 742.02 179.625C714.829 171.311 683.222 185.662 664.058 204.674C658.242 210.444 652.933 216.691 647.61 222.912C650.321 194.794 629.121 172.237 605.035 161.231C622.427 174.201 631.006 186.176 638.42 206.438C616.094 208.145 597.144 204.271 584.992 183.772C576.716 170.538 574.95 152.393 574.995 137.183C617.213 137.595 652.01 144.975 653.858 194.042C656.609 186.341 656.062 175.178 654.055 167.297C659.302 164.041 665.306 160.706 670.685 157.586L678.588 167.778C682.183 160.813 685.604 153.152 688.93 146.003C691.81 149.058 694.975 152.954 697.739 156.193C694.779 147.729 690.684 130.793 686.981 124.741C683.038 131.296 676.677 140.686 672.308 146.924L666.579 144.316C662.664 148.627 656.422 157.704 652.976 162.628C652.033 161.1 651.107 159.259 650.254 157.656C653.807 152.763 661.205 141.964 664.976 138.03C666.973 137.883 669.203 137.834 671.224 137.744C676.535 131.119 681.871 122.378 687.085 115.303Z" fill="#C76227"/>
<path d="M693.403 138.846C696.086 139.408 699.412 142.69 701.469 144.585C698.347 144.001 695.331 141.254 693.403 138.846Z" fill="#DD8142"/>
</g>
<defs>
<clipPath id="clip0_4_2">
<rect width="1024" height="559" fill="white"/>
</clipPath>
</defs>
</svg>
